<?xml version="1.0" encoding="UTF-8" standalone="no"?>
<svg width="261px" height="312px" viewBox="0 0 261 312" version="1.1" xmlns="http://www.w3.org/2000/svg" xmlns:xlink="http://www.w3.org/1999/xlink">
    <!-- Generator: Sketch 3.6.1 (26313) - http://www.bohemiancoding.com/sketch -->
    <title>Untitled</title>
    <desc>Created with Sketch.</desc>
    <defs>
        <filter x="-50%" y="-50%" width="200%" height="200%" filterUnits="objectBoundingBox" id="filter-1">
            <feOffset dx="5" dy="5" in="SourceAlpha" result="shadowOffsetOuter1"></feOffset>
            <feGaussianBlur stdDeviation="4" in="shadowOffsetOuter1" result="shadowBlurOuter1"></feGaussianBlur>
            <feColorMatrix values="0 0 0 0 0   0 0 0 0 0   0 0 0 0 0  0 0 0 0.35 0" in="shadowBlurOuter1" type="matrix" result="shadowMatrixOuter1"></feColorMatrix>
            <feMerge>
                <feMergeNode in="shadowMatrixOuter1"></feMergeNode>
                <feMergeNode in="SourceGraphic"></feMergeNode>
            </feMerge>
        </filter>
        <filter x="-50%" y="-50%" width="200%" height="200%" filterUnits="objectBoundingBox" id="filter-2">
            <feOffset dx="5" dy="5" in="SourceAlpha" result="shadowOffsetOuter1"></feOffset>
            <feGaussianBlur stdDeviation="4" in="shadowOffsetOuter1" result="shadowBlurOuter1"></feGaussianBlur>
            <feColorMatrix values="0 0 0 0 0   0 0 0 0 0   0 0 0 0 0  0 0 0 0.35 0" in="shadowBlurOuter1" type="matrix" result="shadowMatrixOuter1"></feColorMatrix>
            <feMerge>
                <feMergeNode in="shadowMatrixOuter1"></feMergeNode>
                <feMergeNode in="SourceGraphic"></feMergeNode>
            </feMerge>
        </filter>
        <filter x="-50%" y="-50%" width="200%" height="200%" filterUnits="objectBoundingBox" id="filter-3">
            <feOffset dx="5" dy="5" in="SourceAlpha" result="shadowOffsetOuter1"></feOffset>
            <feGaussianBlur stdDeviation="5" in="shadowOffsetOuter1" result="shadowBlurOuter1"></feGaussianBlur>
            <feColorMatrix values="0 0 0 0 0   0 0 0 0 0   0 0 0 0 0  0 0 0 0.35 0" in="shadowBlurOuter1" type="matrix" result="shadowMatrixOuter1"></feColorMatrix>
            <feMerge>
                <feMergeNode in="shadowMatrixOuter1"></feMergeNode>
                <feMergeNode in="SourceGraphic"></feMergeNode>
            </feMerge>
        </filter>
    </defs>
    <g id="Page-1" stroke="none" stroke-width="1" fill="none" fill-rule="evenodd">
        <path d="M68.4034485,137.332866 C70.3397015,127.01894 80.2757741,117.087205 90.5843594,115.151955 L196.364272,95.2936893 C206.678198,93.3574363 213.928814,100.212167 212.556781,110.620821 L197.722803,223.155775 C196.351753,233.556969 186.815923,243.099276 176.407269,244.471309 L63.8723151,259.305287 C53.4711209,260.676337 46.6099328,253.421364 48.5451832,243.112778 L68.4034485,137.332866 Z" id="Rectangle-1-Copy-2" fill="#9B9B9B" style="mix-blend-mode: overlay;" filter="url(#filter-1)" transform="translate(130.470964, 177.219056) rotate(45.000000) translate(-130.470964, -177.219056) "></path>
        <path d="M68.4034485,111.332866 C70.3397015,101.01894 80.2757741,91.087205 90.5843594,89.1519546 L196.364272,69.2936893 C206.678198,67.3574363 213.928814,74.2121675 212.556781,84.6208211 L197.722803,197.155775 C196.351753,207.556969 186.815923,217.099276 176.407269,218.471309 L63.8723151,233.305287 C53.4711209,234.676337 46.6099328,227.421364 48.5451832,217.112778 L68.4034485,111.332866 Z" id="Rectangle-1-Copy" fill="#F6D2A2" opacity="0.850000024" filter="url(#filter-2)" transform="translate(130.470964, 151.219056) rotate(45.000000) translate(-130.470964, -151.219056) "></path>
        <path d="M68.4034485,84.3328655 C70.3397015,74.0189397 80.2757741,64.087205 90.5843594,62.1519546 L196.364272,42.2936893 C206.678198,40.3574363 213.928814,47.2121675 212.556781,57.6208211 L197.722803,170.155775 C196.351753,180.556969 186.815923,190.099276 176.407269,191.471309 L63.8723151,206.305287 C53.4711209,207.676337 46.6099328,200.421364 48.5451832,190.112778 L68.4034485,84.3328655 Z" id="Rectangle-1" fill="#6AD7E5" opacity="0.99000001" filter="url(#filter-3)" transform="translate(130.470964, 124.219056) rotate(45.000000) translate(-130.470964, -124.219056) "></path>
        <g id="go-plain" transform="translate(88.000000, 91.000000)" fill="#106F5A">
            <path d="M81.1104758,34.8436407 C81.0266006,34.7887688 80.9427253,34.733897 80.7749749,34.733897 L80.6910996,34.6790251 C80.6072244,34.6241532 80.5233491,34.6241532 80.5233491,34.5692813 L80.4394739,34.5144095 C80.3555986,34.5144095 80.2717234,34.4595376 80.2717234,34.4595376 L80.1039729,34.4046657 C80.0200976,34.4046657 79.9362224,34.3497938 79.9362224,34.3497938 L79.7684719,34.2949219 C79.6845966,34.2949219 79.6007214,34.2400501 79.6007214,34.2400501 C79.5168461,34.2400501 79.5168461,34.2400501 79.4329709,34.1851782 L79.1813451,34.1303063 C79.0974699,34.1303063 79.0974699,34.1303063 79.0135946,34.0754344 L78.7619689,34.0205626 L78.6780936,34.0205626 L78.3425926,33.9656907 L78.1748421,33.9656907 C78.0909669,33.9656907 78.0070916,33.9656907 77.9232164,33.9108188 L75.9940857,33.9108188 C75.4908342,26.6128594 76.4973372,19.2051563 73.6455787,12.1815563 C84.4654858,9.65745002 75.9940857,-0.0548718751 66.6000578,4.28000626 C60.3932894,0.768206252 51.838014,0 42.8633624,0 C34.0564613,0.384103126 25.7528116,1.59128438 19.8815442,4.60923751 C17.5330373,3.84103126 15.2684055,3.62154376 13.2553996,4.00564688 L13.2553996,4.06051876 C13.1715243,4.06051876 13.0037738,4.11539063 12.9198986,4.17026251 C12.8360233,4.17026251 12.6682728,4.22513438 12.5843976,4.28000626 L12.5005223,4.28000626 C12.4166471,4.28000626 12.3327718,4.33487813 12.1650213,4.38975001 L12.0811461,4.38975001 L11.8295203,4.49949376 L11.7456451,4.49949376 L11.4940193,4.60923751 L11.4101441,4.60923751 L11.1585183,4.71898126 C34.308087,-0.713334377 11.0746431,4.71898126 11.0746431,4.77385314 L10.8230173,4.88359689 C34.308087,-0.713334377 10.7391421,4.88359689 10.7391421,4.93846876 L10.4875164,5.04821251 C34.308087,-0.713334377 10.4036411,5.04821251 10.4036411,5.10308439 L10.1520154,5.21282814 L10.0681401,5.26770001 C9.98426486,5.32257189 9.90038961,5.32257189 9.90038961,5.37744376 L9.81651436,5.43231564 L9.64876386,5.54205939 L9.56488861,5.59693126 C9.48101336,5.65180314 9.48101336,5.70667501 9.39713812,5.70667501 L9.31326287,5.76154689 C9.22938762,5.81641876 9.22938762,5.87129064 9.14551237,5.87129064 L9.06163712,5.92616251 C8.97776187,5.98103439 8.97776187,6.03590626 8.89388662,6.03590626 L8.81001137,6.09077814 C8.72613613,6.14565001 8.72613613,6.20052189 8.64226088,6.20052189 L8.55838563,6.25539376 C8.47451038,6.31026564 8.47451038,6.36513751 8.39063513,6.36513751 L8.30675988,6.42000939 L8.22288463,6.58462501 C-9.64254336,-0.713334377 8.22288463,6.63949689 8.13900938,6.63949689 L8.05513414,6.80411251 C-9.64254336,-0.713334377 8.05513414,6.85898439 7.97125889,6.85898439 L7.88738364,7.02360002 C-9.64254336,-0.713334377 7.88738364,7.07847189 7.80350839,7.07847189 L7.71963314,7.24308752 C-9.64254336,-0.713334377 7.71963314,7.29795939 7.63575789,7.29795939 C7.97125889,7.46257502 7.97125889,7.51744689 7.97125889,7.51744689 L7.97125889,7.57231877 L7.88738364,7.73693439 L7.88738364,7.79180627 C7.88738364,7.84667814 7.88738364,7.90155002 7.80350839,7.95642189 L7.80350839,9.65745002 C7.80350839,9.7123219 7.80350839,9.76719377 7.88738364,9.82206565 L7.88738364,9.87693752 L7.97125889,10.0415531 L7.97125889,10.096425 L8.05513414,10.2610406 C-9.47479287,-0.713334377 8.05513414,10.3159125 8.13900938,10.3159125 L8.22288463,10.4805281 C-9.47479287,-0.713334377 8.22288463,10.5354 8.30675988,10.5354 L8.39063513,10.7000156 C-9.47479287,-0.713334377 8.39063513,10.7548875 8.47451038,10.7548875 L8.64226088,10.9195031 C-9.47479287,-0.713334377 8.64226088,10.974375 8.72613613,10.974375 L8.89388662,11.1389906 C-9.47479287,-0.713334377 8.89388662,11.1938625 8.97776187,11.1938625 L9.14551237,11.3584781 L9.22938762,11.41335 L9.48101336,11.5779657 L9.73263911,11.7425813 L9.81651436,11.7425813 C10.6552668,12.2364282 11.4940193,12.6205313 13.1715243,12.9497625 L13.1715243,12.8400188 C9.64876386,19.753875 12.5843976,26.7226032 12.7521481,33.8559469 C12.2488966,33.8559469 12.1650213,34.0754344 11.3262688,34.1303063 L10.9068926,34.1303063 C10.8230173,34.1303063 10.6552668,34.1303063 10.4875164,34.1851782 C10.4036411,34.1851782 10.2358906,34.1851782 10.1520154,34.2400501 L9.81651436,34.2949219 L9.73263911,34.2949219 L9.39713812,34.3497938 L9.31326287,34.3497938 L9.06163712,34.4046657 L8.97776187,34.4046657 L8.72613613,34.4595376 C30.1143246,-0.713334377 8.64226088,34.4595376 8.64226088,34.5144095 L8.39063513,34.5692813 L8.22288463,34.6241532 C8.13900938,34.6241532 8.05513414,34.6790251 8.05513414,34.6790251 L7.88738364,34.733897 L7.71963314,34.7887688 C7.63575789,34.7887688 7.55188264,34.8436407 7.55188264,34.8436407 L7.38413214,34.8985126 L7.04863115,35.0631282 C6.9647559,35.1180001 6.88088065,35.172872 6.7970054,35.172872 L6.46150441,35.3923595 L6.37762916,35.4472313 C6.29375391,35.5569751 6.12600341,35.6667188 6.04212816,35.7215907 L5.87437767,35.8862063 L5.62275192,36.2154376 L5.53887667,36.3800532 L5.53887667,36.5446688 C5.53887667,36.8190282 5.70662717,37.0385157 6.29375391,37.2031313 C6.46150441,39.2333907 9.56488861,38.3005688 10.9907678,37.6421063 L11.0746431,37.5872345 C11.2423936,37.4774907 11.4940193,37.4226188 11.5778946,37.4226188 L11.6617698,37.4226188 L11.8295203,37.367747 C11.9133956,37.367747 11.9133956,37.367747 11.9972708,37.3128751 C12.1650213,37.2580032 12.3327718,37.2580032 12.4166471,37.2031313 C12.5005223,37.2031313 12.5005223,37.1482595 12.5005223,37.0933876 L12.5843976,37.0385157 C12.6682728,36.928772 12.7521481,36.7092845 12.7521481,36.3800532 L12.8360233,35.6667188 L12.8360233,36.6544126 C12.4166471,43.8426282 9.48101336,53.5000782 15.6039065,59.9749595 C16.6942848,61.1272689 18.0362887,62.1149626 19.5460432,62.9380408 L19.126667,62.9380408 C18.9589165,63.0477845 18.7072907,63.1575283 18.455665,63.267272 L17.7007877,63.5965033 L17.449162,63.706247 L16.9459105,63.9257345 L16.1910333,64.3098376 L15.2684055,64.8585564 C15.100655,64.9683001 15.0167798,65.0780439 14.9329045,65.1329158 L14.5974035,65.462147 L14.429653,65.6267626 C14.3457778,65.7365064 14.2619025,65.8462501 14.2619025,65.9559939 L14.1780273,66.1206095 C14.0102768,66.5595845 14.1780273,67.0534314 14.6812788,67.6021501 L15.0167798,67.8216376 L15.1845303,67.8216376 C15.2684055,67.8216376 15.3522808,67.8216376 15.5200313,67.8765095 C15.6877818,68.095997 16.5265343,69.2483064 18.791166,68.3703564 C21.1396729,67.5472783 22.7333027,65.8462501 25.5850611,65.5718908 L25.1656849,65.2426595 C30.1143246,66.779072 35.9017167,67.4375345 41.1019822,67.5472783 C48.3991288,67.7118939 56.7027784,67.0534314 63.3289231,64.6939408 C65.1741786,65.0780439 66.6000578,66.8339439 68.1936875,67.657022 L68.2775628,67.7118939 L68.361438,67.7667658 L68.4453133,67.8216376 L68.5291885,67.8765095 C-9.64254336,-0.713334377 68.6130638,67.8765095 68.6130638,67.9313814 C68.6130638,67.9313814 68.696939,67.9313814 68.696939,67.9862533 C68.696939,67.9862533 68.7808143,67.9862533 68.7808143,68.0411251 L70.5421945,68.0411251 C147.204172,-0.713334377 70.6260697,68.0411251 70.6260697,67.9862533 L70.709945,67.9862533 C147.204172,-0.713334377 70.7938202,67.9862533 70.7938202,67.9313814 L70.8776955,67.9313814 C147.204172,-0.713334377 70.9615707,67.9313814 70.9615707,67.8765095 C70.9615707,67.8765095 71.045446,67.8765095 71.045446,67.8216376 L71.1293212,67.7667658 C151.733435,-0.713334377 71.2131965,67.7667658 71.2131965,67.7118939 L71.2970717,67.657022 L71.380947,67.657022 L71.5486975,67.5472783 L71.716448,67.4924064 L71.8003232,67.4924064 L71.8841985,67.4375345 L71.9680737,67.4375345 L72.051949,67.3826626 L72.1358242,67.3277908 L72.2196995,67.2729189 L72.3035747,67.218047 L72.38745,67.1631751 L72.4713252,67.1083033 L72.5552005,67.0534314 L72.5552005,66.9985595 C-9.81029386,-0.713334377 72.5552005,66.9436876 72.6390757,66.9436876 L72.6390757,66.8888158 C-9.81029386,-0.713334377 72.6390757,66.8339439 72.722951,66.8339439 L72.722951,66.779072 C-9.81029386,-0.713334377 72.722951,66.7242001 72.8068262,66.7242001 L72.8068262,65.9559939 C-11.9910503,-0.713334377 72.5552005,65.9559939 72.5552005,65.901122 L72.3035747,65.8462501 L72.3035747,65.7913783 L72.5552005,65.7365064 C-9.81029386,-0.713334377 72.722951,65.7365064 72.722951,65.6816345 L72.8068262,65.6267626 L72.8068262,64.4744533 C-13.1653038,-0.713334377 72.8068262,64.4195814 72.722951,64.4195814 L72.722951,64.3647095 C-9.81029386,-0.713334377 72.722951,64.3098376 72.6390757,64.3098376 L72.6390757,64.2549658 C-9.81029386,-0.713334377 72.6390757,64.2000939 72.5552005,64.2000939 C72.5552005,64.2000939 72.5552005,64.145222 72.4713252,64.145222 C72.4713252,64.145222 72.4713252,64.0903501 72.38745,64.0903501 C72.38745,64.0903501 72.38745,64.0354783 72.3035747,64.0354783 C72.3035747,64.0354783 72.3035747,63.9806064 72.2196995,63.9806064 C72.2196995,63.9806064 72.2196995,63.9257345 72.1358242,63.9257345 C72.1358242,63.9257345 72.1358242,63.8708626 72.051949,63.8708626 C72.051949,63.8708626 72.051949,63.8159908 71.9680737,63.8159908 C71.9680737,63.8159908 71.9680737,63.7611189 71.8841985,63.7611189 C71.8841985,63.7611189 71.8841985,63.706247 71.8003232,63.706247 C71.8003232,63.706247 71.8003232,63.6513751 71.716448,63.6513751 C71.716448,63.6513751 71.716448,63.5965033 71.6325727,63.5965033 C71.6325727,63.5965033 71.6325727,63.5416314 71.5486975,63.5416314 C71.5486975,63.5416314 71.5486975,63.4867595 71.4648222,63.4867595 L71.380947,63.4318876 L71.2970717,63.3770158 L71.2131965,63.3221439 L71.1293212,63.267272 L71.045446,63.2124001 L70.9615707,63.1575283 L70.8776955,63.1026564 L70.7938202,63.0477845 L70.709945,62.9929126 L70.6260697,62.9380408 L70.5421945,62.8831689 L70.4583192,62.828297 L70.4583192,62.7734251 L70.374444,62.7185533 L70.2905688,62.6636814 L70.2066935,62.6088095 L70.1228183,62.5539376 L70.038943,62.4990658 L69.9550678,62.4441939 L69.8711925,62.389322 L69.7873173,62.3344501 L69.703442,62.2795783 L69.6195668,62.2247064 L69.5356915,62.1698345 L69.4518163,62.1149626 L69.367941,62.0600908 L69.2840658,62.0052189 L69.2001905,61.950347 L69.1163153,61.8954751 L69.03244,61.8406033 L68.9485648,61.7857314 L68.8646895,61.7308595 C70.5421945,60.6882939 72.051949,59.4262408 73.1423272,57.9447001 C78.0909669,51.4698189 77.2522144,43.5682688 76.5812124,36.4349251 L76.6650877,36.4349251 C76.7489629,36.4349251 76.8328382,36.489797 76.8328382,36.489797 L77.0844639,36.489797 C163.30822,-0.713334377 77.1683392,36.489797 77.1683392,36.5446688 L77.2522144,36.5446688 C163.30822,-0.713334377 77.3360897,36.5446688 77.3360897,36.5995407 L77.5038401,36.6544126 C78.9297194,37.3128751 82.0331036,38.245697 82.2008541,36.2154376 C83.5428581,36.5446688 81.9492283,35.2277438 81.1104758,34.8436407 L81.1104758,34.8436407 Z M20.5525462,11.9071969 C17.8685382,3.12769688 39.3406019,1.48154063 40.0954792,10.0415531 C40.7664812,17.1748969 23.3204294,18.9856688 20.5525462,11.9071969 L20.5525462,11.9071969 Z M50.831511,20.1379782 C49.7411328,20.9061844 48.5668793,20.7964407 47.3926258,20.5220813 C47.3926258,21.5646469 47.7281268,22.6620844 47.4765011,23.7595219 C47.0571248,24.2533688 46.2183723,24.3082407 45.5473704,24.5277282 C44.5408674,24.4179844 43.7859901,24.0338813 43.3666139,23.4302907 L43.1988634,23.3754188 C39.9277287,26.2287563 37.9147227,22.7718282 38.8373504,20.631825 C37.8308475,20.6866969 36.992095,20.5220813 36.321093,19.8087469 C35.1468395,18.3820782 36.9082197,16.6261782 39.1728514,16.3518188 C39.7599782,17.997975 46.4699981,17.7784875 47.6442516,16.242075 C50.2443843,17.0651532 53.0961427,18.6015657 50.831511,20.1379782 L50.831511,20.1379782 Z M44.9602436,10.5354 C44.2053664,2.96308126 61.9869191,0.932821877 64.5870518,8.34052502 C67.5226855,16.5713063 47.1410001,18.7113094 44.9602436,10.5354 L44.9602436,10.5354 Z M25.3334354,8.61488439 C23.7398057,8.61488439 22.3978017,9.54770627 22.3978017,10.7000156 C22.3978017,11.852325 23.7398057,12.7851469 25.3334354,12.7851469 C26.9270651,12.7851469 28.2690691,11.852325 28.2690691,10.7000156 C28.2690691,9.54770627 27.0109404,8.61488439 25.3334354,8.61488439 L25.3334354,8.61488439 Z M26.6754394,11.7425813 C26.2560631,11.7425813 26.0044374,11.5230938 26.0044374,11.1938625 C26.0044374,10.9195031 26.3399384,10.6451438 26.6754394,10.6451438 C27.0948156,10.6451438 27.3464414,10.8646313 27.3464414,11.1938625 C27.3464414,11.4682219 27.0948156,11.7425813 26.6754394,11.7425813 L26.6754394,11.7425813 Z M49.9927585,8.12103752 C48.3991288,8.12103752 47.1410001,9.05385939 47.1410001,10.2061688 C47.1410001,11.3584781 48.3991288,12.2913 49.9927585,12.2913 C51.5863883,12.2913 52.844517,11.3584781 52.844517,10.2061688 C52.844517,9.05385939 51.5863883,8.12103752 49.9927585,8.12103752 L49.9927585,8.12103752 Z M51.3347625,11.1938625 C50.9992615,11.1938625 50.6637605,10.974375 50.6637605,10.6451438 C50.6637605,10.3707844 50.9992615,10.096425 51.3347625,10.096425 C51.6702635,10.096425 52.0057645,10.3159125 52.0057645,10.6451438 C52.0057645,10.974375 51.6702635,11.1938625 51.3347625,11.1938625 L51.3347625,11.1938625 Z" id="Shape"></path>
        </g>
    </g>
</svg>